This is from the TNT Mystery Movie Night.																									                                    Enjoy and please share.																																											                                                                                             Scott Turow's "Innocent"
 
														Bill Pullman (Independence Day, Torchwood) stars as Rusty Sabich, a judge charged with the murder of his wife, a situation that comes 20 years after he was cleared in the death of his mistress. During this latest trial, a secret affair from Rusty's recent past threatens to hamper his defense and fracture his relationship with his son. Oscar winner Marcia Gay Harden (Pollack, Damages) plays Rusty's wife, while Alfred Molina (Spider-Man 2, Law & Order: LA) is his friend and defense attorney. Tahmoh Penikett (Battlestar Galactica, Dollhouse) is hot-headed prosecutor Jim Brand. Emmy winner Richard Schiff (The West Wing, The Lost World: Jurassic Park), Callard Harris (Glory Daze, Intermedio) and Mariana Klaveno (True Blood, While the Children Sleep) also star. Scott Turow's Innocent is a sequel to Turow's bestseller Presumed Innocent. The movie is written and directed by Mike Robe (TNT's HawthoRNe, Nightmares & Dreamscapes: From the Stories of Stephen King), with Robe and Frank von Zerneck (We Were the Mulvaneys, Miracle on Ice) serving as executive producers.																																																									TTLTTLTTLTTLTTLTTLTTLTTLTTLTTLTTLTTLTTLTTLTTLTTLTTLTTLTTLTTL																																	Innocent_480p.HDTV.x264_TTL.mkv
Format                           : Matroska
File size                        : 1.08 GiB
Duration                         : 1h 28mn
Overall bit rate                 : 1 751 Kbps
Writing application              : HandBrake 0.9.5
Writing library                  : libmkv 0.6.4.1

Video
ID                               : 1
Format                           : AVC
Format/Info                      : Advanced Video Codec
Format profile                   : High@L3.0
Format settings, CABAC           : Yes
Format settings, ReFrames        : 4 frames
Format settings, GOP             : M=4, N=10
Muxing mode                      : Container profile=Unknown@3.0
Codec ID                         : V_MPEG4/ISO/AVC
Duration                         : 1h 28mn
Bit rate                         : 1 521 Kbps
Width                            : 624 pixels
Height                           : 352 pixels
Display aspect ratio             : 16:9
Frame rate mode                  : Variable
Frame rate                       : 29.970 fps
Color space                      : YUV
Chroma subsampling               : 4:2:0
Bit depth                        : 8 bits
Scan type                        : Progressive
Bits/(Pixel*Frame)               : 0.231
Stream size                      : 945 MiB (85%)
Writing library                  : x264 core 112
Encoding settings                : cabac=1 / ref=3 / deblock=1:0:0 / analyse=0x3:0x113 / me=hex / subme=7 / psy=1 / psy_rd=1.00:0.00 / mixed_ref=1 / me_range=16 / chroma_me=1 / trellis=1 / 8x8dct=1 / cqm=0 / deadzone=21,11 / fast_pskip=1 / chroma_qp_offset=-2 / threads=3 / sliced_threads=0 / nr=0 / decimate=1 / interlaced=0 / constrained_intra=0 / bframes=3 / b_pyramid=2 / b_adapt=1 / b_bias=0 / direct=1 / weightb=1 / open_gop=0 / weightp=2 / keyint=300 / keyint_min=29 / scenecut=40 / intra_refresh=0 / rc_lookahead=40 / rc=2pass / mbtree=1 / bitrate=1521 / ratetol=1.0 / qcomp=0.60 / qpmin=3 / qpmax=51 / qpstep=4 / cplxblur=20.0 / qblur=0.5 / ip_ratio=1.40 / aq=1:1.00
Color primaries                  : BT.601-6 525, BT.1358 525, BT.1700 NTSC, SMPTE 170M
Transfer characteristics         : BT.709-5, BT.1361
Matrix coefficients              : BT.601-6 525, BT.1358 525, BT.1700 NTSC, SMPTE 170M

Audio
ID                               : 2
Format                           : AC-3
Format/Info                      : Audio Coding 3
Mode extension                   : CM (complete main)
Codec ID                         : A_AC3
Duration                         : 1h 28mn
Bit rate mode                    : Constant
Bit rate                         : 224 Kbps
Channel(s)                       : 2 channels
Channel positions                : Front: L R
Sampling rate                    : 48.0 KHz
Stream size                      : 142 MiB (13%)

